<?xml version="1.0" encoding="iso-8859-1"?>
<!-- Generator: Adobe Illustrator 18.1.1, SVG Export Plug-In . SVG Version: 6.00 Build 0)  -->
<svg version="1.1" id="_x31_" xmlns="http://www.w3.org/2000/svg" xmlns:xlink="http://www.w3.org/1999/xlink" x="0px" y="0px"
	 viewBox="0 0 512 512" style="enable-background:new 0 0 512 512;" xml:space="preserve">
<g>
	<path style="fill:#009EBC;" d="M493.324,170.666L280.771,54.725c-7.718-4.21-16.251-6.315-24.771-6.315
		c-8.521,0-17.053,2.105-24.769,6.315L18.676,170.666C7.163,176.945,0,189.009,0,202.122v230.933
		c-0.002,4.19,0.855,8.23,2.403,11.888c2.326,5.493,6.185,10.136,11.054,13.425c4.863,3.293,10.787,5.227,17.081,5.223
		l450.926-0.002v0.002c4.191,0,8.231-0.856,11.889-2.405c5.493-2.325,10.136-6.184,13.427-11.051
		c3.293-4.863,5.225-10.787,5.221-17.079V202.122C512,189.009,504.838,176.945,493.324,170.666z M493.311,433.055
		c-0.002,1.66-0.332,3.193-0.928,4.607c-0.891,2.113-2.407,3.94-4.301,5.219c-1.902,1.279-4.133,2.014-6.618,2.017l0,0H30.537
		c-1.662,0-3.197-0.33-4.609-0.925c-2.113-0.894-3.942-2.407-5.221-4.304c-1.278-1.902-2.014-4.133-2.018-6.615V202.122
		c0-6.274,3.428-12.047,8.935-15.049L240.179,71.132c4.933-2.689,10.372-4.031,15.821-4.033c5.448,0.002,10.888,1.343,15.821,4.033
		l212.555,115.941c5.507,3.003,8.935,8.776,8.935,15.049V433.055z"/>
</g>
</svg>
